<svg xmlns="http://www.w3.org/2000/svg" version="1.1" xmlns:xlink="http://www.w3.org/1999/xlink" xmlns:svgjs="http://svgjs.dev/svgjs" width="2000" height="2413" viewBox="0 0 2000 2413"><g transform="matrix(1,0,0,1,1.5018446277646262,0.7379204892968119)"><svg viewBox="0 0 271 327" data-background-color="#35185a" preserveAspectRatio="xMidYMid meet" height="2413" width="2000" xmlns="http://www.w3.org/2000/svg" xmlns:xlink="http://www.w3.org/1999/xlink"><g id="tight-bounds" transform="matrix(1,0,0,1,-0.20349994706211305,-0.10000000000002274)"><svg viewBox="0 0 271.4069998941242 327.2" height="327.2" width="271.4069998941242"><g><svg viewBox="0 0 395.52 476.8268469512002" height="327.2" width="271.4069998941242"><g transform="matrix(1,0,0,1,0,309.0520746563437)"><svg viewBox="0 0 395.52 167.77477229485652" height="167.77477229485652" width="395.52"><g id="textblocktransform"><svg viewBox="0 0 395.52 167.77477229485652" height="167.77477229485652" width="395.52" id="textblock"><g><svg viewBox="0 0 395.52 129.45671810268678" height="129.45671810268678" width="395.52"><g transform="matrix(1,0,0,1,0,0)"><svg width="395.52" viewBox="0.013581174441306826 -30.4137636762288 126.56902315918434 41.42700367622881" height="129.45671810268678" data-palette-color="#ffffff"><path d="M13.586 8.832c-1.34 0.357-2.599 0.566-3.777 0.624-1.184 0.061-2.172 0.045-2.962-0.048-0.799-0.097-1.202-0.162-1.211-0.194v0l-0.371-0.419c-0.018-0.195-0.08-0.689-0.188-1.481-0.108-0.792-0.287-1.814-0.538-3.065-0.244-1.253-0.55-2.565-0.916-3.937v0l2.093-0.807c0.638 2.39 1.268 4.119 1.891 5.188 0.628 1.061 1.431 1.692 2.409 1.893 0.972 0.203 2.353 0.066 4.144-0.412v0c2.01-0.536 3.495-1.436 4.455-2.7 0.965-1.272 1.231-2.719 0.797-4.342v0c-0.256-0.96-0.815-1.735-1.676-2.326-0.855-0.593-1.802-1.041-2.842-1.343-1.04-0.302-2.559-0.683-4.559-1.144v0c-1.892-0.42-3.462-0.846-4.709-1.279-1.242-0.441-2.356-1.058-3.34-1.852-0.98-0.801-1.644-1.856-1.993-3.163v0c-0.443-1.662-0.359-3.299 0.253-4.911 0.61-1.619 1.648-3.041 3.115-4.267 1.465-1.233 3.222-2.122 5.27-2.669v0c1.275-0.34 2.478-0.565 3.609-0.673 1.135-0.117 2.047-0.163 2.736-0.14 0.688 0.017 1.12 0.036 1.299 0.057v0l0.212 0.254c0.019 0.202 0.061 0.67 0.127 1.405 0.058 0.736 0.173 1.748 0.343 3.034 0.171 1.286 0.382 2.596 0.635 3.929v0l-1.814 0.691-0.354-0.164c0-0.131-0.046-0.433-0.138-0.905-0.092-0.472-0.218-1.011-0.38-1.617v0c-0.452-1.694-1.175-2.75-2.169-3.168-1.001-0.416-2.571-0.339-4.71 0.232v0c-1.758 0.469-3.088 1.293-3.987 2.471-0.9 1.178-1.175 2.425-0.825 3.739v0c0.34 1.275 1.187 2.236 2.539 2.883 1.352 0.647 3.247 1.245 5.685 1.795v0c2.354 0.497 4.168 0.944 5.44 1.343 1.264 0.394 2.449 0.992 3.553 1.795 1.102 0.796 1.832 1.864 2.19 3.204v0c0.478 1.791 0.403 3.529-0.224 5.214-0.625 1.692-1.726 3.176-3.304 4.452-1.573 1.268-3.509 2.209-5.808 2.823zM30.035 5.063l-0.052-2.289c1.489-0.535 2.459-1.131 2.91-1.788 0.452-0.65 0.571-1.664 0.357-3.041v0l-3.146-20.571c-0.162-1.041-0.396-1.723-0.703-2.046-0.299-0.318-0.808-0.421-1.526-0.31v0l-2.039 0.419-0.13-0.183 0.011-2.208c0.52-0.081 0.931-0.128 1.233-0.141v0l4.61-0.615c1.469-0.228 3.323-0.668 5.563-1.32v0l0.145 2.234c-1.312 0.373-2.175 0.783-2.591 1.233-0.409 0.448-0.573 1.152-0.492 2.111v0c0.395 3.845 0.85 7.859 1.366 12.043 0.515 4.184 0.925 7.254 1.229 9.21v0c0.208 1.337 0.494 2.204 0.859 2.599 0.365 0.395 0.969 0.527 1.813 0.396v0c0.56-0.087 1.419-0.271 2.575-0.552v0l0.13 0.183-0.095 2.322c-0.455 0.071-0.816 0.11-1.084 0.118v0c-2.296 0.289-4.08 0.533-5.352 0.73v0c-1.601 0.249-3.465 0.737-5.591 1.466zM54.606 2.53c-1.385 0.071-2.659 0.013-3.824-0.174-1.171-0.187-2.134-0.408-2.888-0.663-0.761-0.261-1.143-0.408-1.145-0.441v0l-0.275-0.487c0.023-0.195 0.065-0.691 0.124-1.488 0.059-0.797 0.096-1.834 0.11-3.11 0.021-1.276-0.005-2.623-0.078-4.041v0l2.215-0.355c0.127 2.47 0.384 4.293 0.772 5.468 0.394 1.168 1.048 1.952 1.964 2.352 0.908 0.401 2.288 0.553 4.139 0.458v0c2.077-0.107 3.717-0.679 4.918-1.715 1.208-1.043 1.769-2.404 1.682-4.082v0c-0.051-0.992-0.437-1.867-1.156-2.624-0.713-0.758-1.547-1.392-2.501-1.904-0.954-0.512-2.361-1.2-4.222-2.066v0c-1.764-0.804-3.21-1.547-4.34-2.23-1.124-0.69-2.084-1.525-2.883-2.505-0.792-0.987-1.222-2.157-1.292-3.508v0c-0.088-1.718 0.334-3.302 1.267-4.751 0.933-1.457 2.244-2.632 3.934-3.527 1.689-0.901 3.592-1.407 5.71-1.516v0c1.318-0.068 2.541-0.037 3.67 0.092 1.134 0.122 2.036 0.266 2.705 0.431 0.669 0.159 1.089 0.268 1.259 0.326v0l0.155 0.293c-0.023 0.201-0.079 0.668-0.168 1.4-0.096 0.733-0.194 1.746-0.294 3.039-0.1 1.294-0.166 2.619-0.196 3.975v0l-1.918 0.299-0.312-0.234c0.027-0.128 0.044-0.433 0.053-0.914 0.009-0.481-0.003-1.035-0.035-1.66v0c-0.09-1.751-0.578-2.934-1.465-3.55-0.893-0.615-2.444-0.866-4.654-0.751v0c-1.818 0.094-3.289 0.623-4.415 1.589-1.125 0.966-1.653 2.128-1.583 3.486v0c0.068 1.318 0.696 2.434 1.885 3.347 1.189 0.913 2.918 1.893 5.188 2.937v0c2.2 0.975 3.88 1.79 5.042 2.444 1.155 0.648 2.189 1.479 3.102 2.494 0.913 1.008 1.405 2.204 1.477 3.589v0c0.095 1.851-0.339 3.535-1.302 5.054-0.963 1.525-2.349 2.748-4.157 3.668-1.802 0.914-3.892 1.432-6.268 1.555zM76.932 2.195c-1.017-0.083-2.126-0.091-3.329-0.023-1.196 0.069-1.98 0.119-2.35 0.149v0l0.484-2.238c1.539-0.175 2.595-0.53 3.168-1.065 0.578-0.528 0.925-1.486 1.038-2.874v0l1.752-20.737c0.086-1.05 0.018-1.768-0.205-2.154-0.216-0.379-0.687-0.598-1.411-0.657v0c-0.326-0.027-0.656-0.037-0.991-0.031-0.328 0.007-0.559 0.004-0.692-0.007v0l-0.083-0.207 0.527-2.144c0.389 0.065 1.124 0.159 2.205 0.281 1.087 0.123 2.172 0.228 3.255 0.317v0c1.123 0.092 2.271 0.16 3.445 0.202 1.173 0.049 1.974 0.075 2.401 0.077v0c3.129 0.257 5.481 1.105 7.056 2.545 1.568 1.433 2.253 3.352 2.056 5.758v0c-0.135 1.648-0.758 3.088-1.87 4.321-1.111 1.233-2.606 2.171-4.485 2.813v0c2.362 0.722 4.163 1.8 5.404 3.233 1.241 1.426 1.786 3.06 1.635 4.9v0c-0.138 1.681-0.802 3.209-1.991 4.582-1.19 1.381-2.708 2.433-4.554 3.158-1.853 0.731-3.799 1.013-5.838 0.846v0c-0.89-0.073-1.903-0.24-3.04-0.5v0c-1.867-0.32-3.063-0.502-3.587-0.545zM80.676-14.947c0.489 0.074 1.314 0.208 2.475 0.404 1.161 0.196 2.119 0.341 2.874 0.436v0c-0.008 0.093 0.435-0.045 1.328-0.412 0.894-0.375 1.725-1.006 2.493-1.893 0.768-0.88 1.217-2.111 1.347-3.692v0c0.173-2.106-0.407-3.726-1.739-4.859-1.331-1.139-3.479-1.831-6.442-2.073v0c-0.332-0.027-0.561 0.028-0.686 0.164-0.125 0.144-0.224 0.443-0.294 0.899v0c-0.459 3.146-0.911 6.822-1.356 11.026zM80.362-12.344l-0.957 9.223c-0.102 1.249 0.253 2.175 1.066 2.777 0.814 0.595 2.241 0.976 4.281 1.143v0c1.973 0.162 3.573-0.262 4.8-1.272 1.227-1.01 1.917-2.455 2.072-4.335v0c0.146-1.774-0.293-3.275-1.317-4.502-1.03-1.228-2.631-2.129-4.805-2.702v0zM120.721 10.582c-0.805-0.188-1.57-0.798-2.294-1.83-0.724-1.032-1.308-2.345-1.749-3.941v0l-2.984-10.575-4.002-0.935-1.827 7.162c-0.285 1.22-0.408 2.116-0.37 2.687 0.04 0.564 0.262 0.989 0.667 1.275 0.414 0.281 1.166 0.549 2.257 0.804v0l0.052 0.217-0.912 1.924c-0.375-0.122-1.137-0.334-2.285-0.637-1.154-0.304-2.358-0.602-3.611-0.894v0c-1.123-0.262-2.123-0.479-3.001-0.65-0.878-0.171-1.466-0.274-1.766-0.309v0l0.946-2.07c1.063 0.111 1.877 0.113 2.442 0.006 0.564-0.101 1.002-0.379 1.314-0.833 0.311-0.454 0.58-1.165 0.806-2.133v0l4.781-20.253c0.24-1.026 0.278-1.746 0.114-2.161-0.158-0.407-0.591-0.693-1.299-0.858v0c-0.318-0.074-0.643-0.133-0.975-0.176-0.326-0.042-0.553-0.078-0.684-0.108v0l-0.052-0.218 0.837-2.043c0.375 0.122 1.088 0.323 2.139 0.602 1.057 0.281 2.115 0.545 3.173 0.792v0c1.097 0.256 2.256 0.499 3.475 0.73 1.218 0.237 2.055 0.391 2.511 0.463v0c2.993 0.699 5.198 1.926 6.616 3.681 1.425 1.757 1.862 3.81 1.314 6.16v0c-0.45 1.928-1.483 3.552-3.1 4.873-1.616 1.32-3.67 2.231-6.162 2.73v0l3.347 9.633c0.574 1.763 1.233 3.047 1.977 3.851 0.751 0.798 1.77 1.348 3.055 1.647v0l0.149 0.241-0.676 1.577zM115.274-7.737c-0.023 0.097 0.509 0.003 1.597-0.284 1.087-0.287 2.141-0.873 3.162-1.757 1.02-0.878 1.725-2.154 2.116-3.829v0c0.991-4.246-1.457-7.056-7.345-8.431v0c-0.325-0.076-0.559-0.055-0.703 0.062-0.145 0.124-0.286 0.406-0.423 0.845v0c-1.441 4.853-2.527 8.772-3.259 11.757v0z" opacity="1" transform="matrix(1,0,0,1,0,0)" fill="#ffffff" class="wordmark-text-0" data-fill-palette-color="primary" id="text-0"></path></svg></g></svg></g><g transform="matrix(1,0,0,1,118.31980799999997,139.84712525671273)"><svg viewBox="0 0 158.88038400000005 27.927647038143792" height="27.927647038143792" width="158.88038400000005"><g transform="matrix(1,0,0,1,0,0)"><svg width="158.88038400000005" viewBox="3.85 -37 284.42999999999995 50" height="27.927647038143792" data-palette-color="#ffffff"><path d="M21.3-17.95Q23.2-17.65 24.78-16.4 26.35-15.15 27.28-13.3 28.2-11.45 28.2-9.35L28.2-9.35Q28.2-6.7 26.85-4.58 25.5-2.45 22.93-1.23 20.35 0 16.85 0L16.85 0 3.85 0 3.85-34.85 16.35-34.85Q19.9-34.85 22.4-33.68 24.9-32.5 26.15-30.5 27.4-28.5 27.4-26L27.4-26Q27.4-22.9 25.73-20.88 24.05-18.85 21.3-17.95L21.3-17.95ZM8.4-31.1L8.4-19.8 16.05-19.8Q19.25-19.8 21-21.3 22.75-22.8 22.75-25.45L22.75-25.45Q22.75-28.1 21-29.6 19.25-31.1 15.95-31.1L15.95-31.1 8.4-31.1ZM16.45-3.75Q19.85-3.75 21.75-5.35 23.65-6.95 23.65-9.8L23.65-9.8Q23.65-12.7 21.65-14.38 19.65-16.05 16.3-16.05L16.3-16.05 8.4-16.05 8.4-3.75 16.45-3.75ZM32.8-13.8Q32.8-18 34.5-21.18 36.2-24.35 39.17-26.1 42.15-27.85 45.8-27.85L45.8-27.85Q49.4-27.85 52.05-26.3 54.7-24.75 56-22.4L56-22.4 56-27.4 60.6-27.4 60.6 0 56 0 56-5.1Q54.65-2.7 51.97-1.13 49.3 0.45 45.75 0.45L45.75 0.45Q42.1 0.45 39.15-1.35 36.2-3.15 34.5-6.4 32.8-9.65 32.8-13.8L32.8-13.8ZM56-13.75Q56-16.85 54.75-19.15 53.5-21.45 51.37-22.68 49.25-23.9 46.7-23.9L46.7-23.9Q44.15-23.9 42.05-22.7 39.95-21.5 38.7-19.2 37.45-16.9 37.45-13.8L37.45-13.8Q37.45-10.65 38.7-8.33 39.95-6 42.05-4.78 44.15-3.55 46.7-3.55L46.7-3.55Q49.25-3.55 51.37-4.78 53.5-6 54.75-8.33 56-10.65 56-13.75L56-13.75ZM72.85-22.95Q74.05-25.3 76.27-26.6 78.5-27.9 81.7-27.9L81.7-27.9 81.7-23.2 80.5-23.2Q72.85-23.2 72.85-14.9L72.85-14.9 72.85 0 68.3 0 68.3-27.4 72.85-27.4 72.85-22.95ZM91.49-22.3Q92.89-24.75 95.59-26.3 98.29-27.85 101.74-27.85L101.74-27.85Q105.44-27.85 108.39-26.1 111.34-24.35 113.04-21.18 114.74-18 114.74-13.8L114.74-13.8Q114.74-9.65 113.04-6.4 111.34-3.15 108.37-1.35 105.39 0.45 101.74 0.45L101.74 0.45Q98.19 0.45 95.52-1.1 92.84-2.65 91.49-5.05L91.49-5.05 91.49 0 86.94 0 86.94-37 91.49-37 91.49-22.3ZM110.09-13.8Q110.09-16.9 108.84-19.2 107.59-21.5 105.47-22.7 103.34-23.9 100.79-23.9L100.79-23.9Q98.29-23.9 96.17-22.68 94.04-21.45 92.77-19.13 91.49-16.8 91.49-13.75L91.49-13.75Q91.49-10.65 92.77-8.33 94.04-6 96.17-4.78 98.29-3.55 100.79-3.55L100.79-3.55Q103.34-3.55 105.47-4.78 107.59-6 108.84-8.33 110.09-10.65 110.09-13.8L110.09-13.8ZM145.74-14.75Q145.74-13.45 145.59-12L145.59-12 123.69-12Q123.94-7.95 126.47-5.68 128.99-3.4 132.59-3.4L132.59-3.4Q135.54-3.4 137.52-4.78 139.49-6.15 140.29-8.45L140.29-8.45 145.19-8.45Q144.09-4.5 140.79-2.02 137.49 0.45 132.59 0.45L132.59 0.45Q128.69 0.45 125.62-1.3 122.54-3.05 120.79-6.28 119.04-9.5 119.04-13.75L119.04-13.75Q119.04-18 120.74-21.2 122.44-24.4 125.52-26.13 128.59-27.85 132.59-27.85L132.59-27.85Q136.49-27.85 139.49-26.15 142.49-24.45 144.12-21.48 145.74-18.5 145.74-14.75L145.74-14.75ZM141.04-15.7Q141.04-18.3 139.89-20.18 138.74-22.05 136.77-23.03 134.79-24 132.39-24L132.39-24Q128.94-24 126.52-21.8 124.09-19.6 123.74-15.7L123.74-15.7 141.04-15.7ZM156.29-22.95Q157.49-25.3 159.71-26.6 161.94-27.9 165.14-27.9L165.14-27.9 165.14-23.2 163.94-23.2Q156.29-23.2 156.29-14.9L156.29-14.9 156.29 0 151.74 0 151.74-27.4 156.29-27.4 156.29-22.95ZM180.09 0.45Q176.94 0.45 174.44-0.63 171.94-1.7 170.49-3.63 169.04-5.55 168.89-8.05L168.89-8.05 173.59-8.05Q173.79-6 175.51-4.7 177.24-3.4 180.04-3.4L180.04-3.4Q182.64-3.4 184.14-4.55 185.64-5.7 185.64-7.45L185.64-7.45Q185.64-9.25 184.04-10.13 182.44-11 179.09-11.85L179.09-11.85Q176.04-12.65 174.11-13.48 172.19-14.3 170.81-15.93 169.44-17.55 169.44-20.2L169.44-20.2Q169.44-22.3 170.69-24.05 171.94-25.8 174.24-26.83 176.54-27.85 179.49-27.85L179.49-27.85Q184.04-27.85 186.84-25.55 189.64-23.25 189.84-19.25L189.84-19.25 185.29-19.25Q185.14-21.4 183.56-22.7 181.99-24 179.34-24L179.34-24Q176.89-24 175.44-22.95 173.99-21.9 173.99-20.2L173.99-20.2Q173.99-18.85 174.86-17.98 175.74-17.1 177.06-16.57 178.39-16.05 180.74-15.4L180.74-15.4Q183.69-14.6 185.54-13.83 187.39-13.05 188.71-11.5 190.04-9.95 190.09-7.45L190.09-7.45Q190.09-5.2 188.84-3.4 187.59-1.6 185.31-0.58 183.04 0.45 180.09 0.45L180.09 0.45ZM210.08-27.9Q213.18-27.9 215.68-26.58 218.18-25.25 219.61-22.6 221.03-19.95 221.03-16.15L221.03-16.15 221.03 0 216.53 0 216.53-15.5Q216.53-19.6 214.48-21.78 212.43-23.95 208.88-23.95L208.88-23.95Q205.28-23.95 203.16-21.7 201.03-19.45 201.03-15.15L201.03-15.15 201.03 0 196.48 0 196.48-37 201.03-37 201.03-23.5Q202.38-25.6 204.76-26.75 207.13-27.9 210.08-27.9L210.08-27.9ZM240.43 0.45Q236.58 0.45 233.46-1.3 230.33-3.05 228.56-6.28 226.78-9.5 226.78-13.75L226.78-13.75Q226.78-17.95 228.61-21.18 230.43-24.4 233.58-26.13 236.73-27.85 240.63-27.85L240.63-27.85Q244.53-27.85 247.68-26.13 250.83-24.4 252.66-21.2 254.48-18 254.48-13.75L254.48-13.75Q254.48-9.5 252.61-6.28 250.73-3.05 247.53-1.3 244.33 0.45 240.43 0.45L240.43 0.45ZM240.43-3.55Q242.88-3.55 245.03-4.7 247.18-5.85 248.51-8.15 249.83-10.45 249.83-13.75L249.83-13.75Q249.83-17.05 248.53-19.35 247.23-21.65 245.13-22.78 243.03-23.9 240.58-23.9L240.58-23.9Q238.08-23.9 236.01-22.78 233.93-21.65 232.68-19.35 231.43-17.05 231.43-13.75L231.43-13.75Q231.43-10.4 232.66-8.1 233.88-5.8 235.93-4.67 237.98-3.55 240.43-3.55L240.43-3.55ZM265.03-22.35Q266.38-24.7 269.05-26.28 271.73-27.85 275.28-27.85L275.28-27.85Q278.93-27.85 281.9-26.1 284.88-24.35 286.58-21.18 288.28-18 288.28-13.8L288.28-13.8Q288.28-9.65 286.58-6.4 284.88-3.15 281.9-1.35 278.93 0.45 275.28 0.45L275.28 0.45Q271.78 0.45 269.1-1.13 266.43-2.7 265.03-5.05L265.03-5.05 265.03 13 260.48 13 260.48-27.4 265.03-27.4 265.03-22.35ZM283.63-13.8Q283.63-16.9 282.38-19.2 281.13-21.5 279-22.7 276.88-23.9 274.33-23.9L274.33-23.9Q271.83-23.9 269.7-22.68 267.58-21.45 266.3-19.13 265.03-16.8 265.03-13.75L265.03-13.75Q265.03-10.65 266.3-8.33 267.58-6 269.7-4.78 271.83-3.55 274.33-3.55L274.33-3.55Q276.88-3.55 279-4.78 281.13-6 282.38-8.33 283.63-10.65 283.63-13.8L283.63-13.8Z" opacity="1" transform="matrix(1,0,0,1,0,0)" fill="#ffffff" class="slogan-text-1" data-fill-palette-color="secondary" id="text-1"></path></svg></g></svg></g></svg></g></svg></g><g transform="matrix(1,0,0,1,97.60552382836603,0)"><svg viewBox="0 0 200.30895234326792 271.4595815730778" height="271.4595815730778" width="200.30895234326792"><g><svg xmlns="http://www.w3.org/2000/svg" xmlns:xlink="http://www.w3.org/1999/xlink" version="1.1" x="0" y="0" viewBox="16.793999999999997 5 66.41100025854224 90.00048241048738" enable-background="new 0 0 100 100" xml:space="preserve" height="271.4595815730778" width="200.30895234326792" class="icon-icon-0" data-fill-palette-color="accent" id="icon-0"><g fill="#ffffff" data-fill-palette-color="accent"><path fill="#ffffff" d="M76.598 5.077V5H61.068v3.69h14.758v3.689H61.068v3.689h14.758v3.689H61.068v3.689h14.758v3.689H61.068v3.689h14.758v3.689H61.068v3.69h14.758v3.689H61.068v3.689h14.758v3.689H61.068v3.689h14.758V82.48c0 2.04 1.654 3.689 3.69 3.689 2.039 0 3.689-1.65 3.689-3.689V12.379C83.206 8.567 80.306 5.469 76.598 5.077" data-fill-palette-color="accent"></path><path fill="#ffffff" d="M38.009 45.585c0-2.23 1.586-4.092 3.689-4.518V5h-2.767l-7.379 51.653v8.024c-1.157-0.411-2.396-0.645-3.689-0.645-6.111 0-11.069 4.958-11.069 11.069 0 6.114 4.958 11.068 11.069 11.068 5.963 0 10.812-4.718 11.047-10.625l0.021 0.018V56.653h2.767v-6.549C39.595 49.678 38.009 47.815 38.009 45.585M27.863 80.635c-3.052 0-5.534-2.482-5.534-5.534s2.482-5.534 5.534-5.534 5.534 2.482 5.534 5.534S30.915 80.635 27.863 80.635" data-fill-palette-color="accent"></path><path fill="#ffffff" d="M64.304 83.73c2.522-2.029 4.144-5.138 4.144-8.629 0-6.111-4.957-11.069-11.068-11.069-1.293 0-2.533 0.234-3.689 0.645v-8.024L46.311 5h-2.768v36.067c2.108 0.426 3.689 2.288 3.689 4.518 0 2.23-1.581 4.093-3.689 4.52v6.549h2.768v18.909l0.025-0.018c0.23 5.837 4.969 10.507 10.838 10.616 0.468 1.366 1.062 2.975 1.164 3.198 0.821 1.812 1.924 3.849 3.664 4.943 3.895 2.457 8.492-2.093 4.601-5.517C66.603 88.785 64.081 88.011 64.304 83.73M57.379 80.635c-3.052 0-5.534-2.482-5.534-5.534s2.482-5.534 5.534-5.534 5.534 2.482 5.534 5.534S60.431 80.635 57.379 80.635" data-fill-palette-color="accent"></path></g></svg></g></svg></g><g></g></svg></g><defs></defs></svg><rect width="271.4069998941242" height="327.2" fill="none" stroke="none" visibility="hidden"></rect></g></svg></g></svg>